<?xml version="1.0" encoding="utf-8"?>
<!-- Generator: Adobe Illustrator 18.1.1, SVG Export Plug-In . SVG Version: 6.00 Build 0)  -->
<svg version="1.1" id="Слой_1" xmlns="http://www.w3.org/2000/svg" xmlns:xlink="http://www.w3.org/1999/xlink" x="0px" y="0px"
	 viewBox="0 0 500 500" enable-background="new 0 0 500 500" xml:space="preserve">
<g>
	<path fill="none" stroke="#FFFFFF" stroke-miterlimit="10" d="M239.2,266.4c-0.5-2.7-1.9-4.6-3.9-4.9c-0.1,0-0.2,0-0.2,0
		c-0.5-7.6-2.9-14.6-6.6-20.5"/>
	<path fill="none" stroke="#FFFFFF" stroke-miterlimit="10" d="M180.9,299.6c5.4,3.7,11.7,5.9,18.5,5.9"/>
	<path fill="none" stroke="#FFFFFF" stroke-miterlimit="10" d="M170.8,240.4c-3.9,6-6.4,13.2-7,21.1c-0.1,0-0.1,0-0.2,0
		c-2.9,0.4-4.6,4.6-3.9,9.3c0.7,4.4,3.3,7.7,6.1,7.7c0.9,2.8,2,5.4,3.3,7.8"/>
	<g>
		<path fill="#FFFFFF" d="M191,260.6c0-0.9-0.4-1.8-1-2.4h-4.7c-0.6,0.6-1,1.5-1,2.4c0,1.2,0.6,2.2,1.5,2.8h3.8
			C190.4,262.8,191,261.8,191,260.6z"/>
	</g>
	<g>
		<path fill="#FFFFFF" d="M216.8,260.6c0-0.9-0.4-1.8-1-2.4H211c-0.6,0.6-1,1.5-1,2.4c0,1.2,0.6,2.2,1.5,2.8h3.8
			C216.2,262.8,216.8,261.8,216.8,260.6z"/>
	</g>
	<path fill="#FFFFFF" d="M219.3,256.3c-0.2,0-0.5-0.1-0.7-0.3c-1.5-1.7-3.1-2.6-4.9-2.7c-3.2-0.2-5.8,2.3-5.8,2.3
		c-0.4,0.3-0.9,0.3-1.2,0c-0.3-0.4-0.3-0.9,0-1.2c0.1-0.1,3.2-3,7.1-2.7c2.3,0.1,4.3,1.2,6.1,3.3c0.3,0.4,0.3,0.9-0.1,1.2
		C219.7,256.3,219.5,256.3,219.3,256.3z"/>
	<path fill="#FFFFFF" d="M181.5,256.3c-0.2,0-0.4-0.1-0.6-0.2c-0.4-0.3-0.4-0.9-0.1-1.2c1.8-2,3.8-3.1,6.1-3.3
		c3.9-0.2,7,2.6,7.1,2.7c0.4,0.3,0.4,0.9,0,1.2c-0.3,0.4-0.9,0.4-1.2,0c0,0-2.7-2.4-5.8-2.3c-1.8,0.1-3.4,1-4.9,2.7
		C182,256.2,181.8,256.3,181.5,256.3z"/>
	<path fill="none" stroke="#FFFFFF" stroke-miterlimit="10" d="M190.9,189.2c-3.5-3.5-8.4-5.7-13.8-5.7c0,0,0,0,0,0c0,0,0,0,0,0
		c-10.8,0-19.1,8.7-19.1,19.5c0,8.6,4.5,15.8,13.5,18.4v20.1h28v-43.1v-11.6C195.5,186.7,193.4,187.6,190.9,189.2z"/>
	<path fill="none" stroke="#FFFFFF" stroke-miterlimit="10" d="M160.9,202.7c0-8.7,7.1-15.8,15.8-15.8"/>
	<path fill="none" stroke="#FFFFFF" stroke-miterlimit="10" d="M199.4,311.4c22.6,0,40.9-20,40.9-44.7h-40.8L199.4,311.4z"/>
	<path fill="none" stroke="#FFFFFF" stroke-miterlimit="10" d="M199.5,300.3h-13.4c-9.3,0-16.9-7.6-16.9-16.9v0
		c0-9.3,7.6-16.9,16.9-16.9h13.4"/>
	<path fill="none" stroke="#FFFFFF" stroke-miterlimit="10" d="M189.3,297.5h-3.7c-7.4,0-13.5-6-13.5-13.5v-1.8"/>
	<path fill="none" stroke="#FFFFFF" stroke-miterlimit="10" d="M212.1,304.7c-1.4,0-2.7-0.8-3.3-2.2c-0.8-1.8,0.1-3.9,1.9-4.7
		c7.8-3.3,14.1-10.5,16.7-19.3c0.6-1.9,2.5-3,4.4-2.4c1.9,0.6,3,2.5,2.4,4.4c-3.2,11-10.8,19.7-20.8,23.8
		C213,304.6,212.6,304.7,212.1,304.7z"/>
	<path fill="none" stroke="#FFFFFF" stroke-miterlimit="10" d="M199.4,214.2c21.6,0,40,5.1,40,11.3s-17.5,11.3-39.2,11.3
		c-0.3,0-0.6,0-0.9,0"/>
	<path fill="none" stroke="#FFFFFF" stroke-miterlimit="10" d="M231,232.4c0.4,0.7,0.7,1.5,0.7,2.2c0,5.9-14.9,13.9-32.3,13.9"/>
	<path fill="none" stroke="#FFFFFF" stroke-miterlimit="10" d="M231.7,233.9c-9.7,4.6-18.7,7.5-32.7,7.5"/>
	<line fill="none" stroke="#FFFFFF" stroke-miterlimit="10" x1="174" y1="272.6" x2="162.5" y2="262.9"/>
	<path fill="none" stroke="#FFFFFF" stroke-miterlimit="10" d="M189.3,294.4h-3c-5.9,0-10.7-4.8-10.7-10.7v-1.4"/>
</g>
<g>
	<path fill="none" stroke="#5AFFFF" stroke-width="4" stroke-miterlimit="10" d="M288.3,241.4c-2.8,6.5-9.2,11.1-16.8,11.1
		c-10.1,0-18.2-8.2-18.2-18.2c0-10.1,8.2-18.2,18.2-18.2c7.9,0,14.7,5.1,17.2,12.2"/>
	<path fill="none" stroke="#5AFFFF" stroke-width="4" stroke-miterlimit="10" d="M310.3,241.4c-2.8,6.5-9.2,11.1-16.8,11.1
		c-10.1,0-18.2-8.2-18.2-18.2c0-10.1,8.2-18.2,18.2-18.2c7.9,0,14.7,5.1,17.2,12.2"/>
</g>
<rect x="253.3" y="272.8" fill="none" width="71.8" height="40.1"/>
<text transform="matrix(1 0 0 1 253.3367 286.1353)"><tspan x="0" y="0" fill="#5AFFFF" font-family="'Chalet-ParisNineteenSixty'" font-size="17.9594" letter-spacing="1">Создай </tspan><tspan x="0" y="20" fill="#5AFFFF" font-family="'Chalet-ParisNineteenSixty'" font-size="17.9594" letter-spacing="1">Себя</tspan></text>
<path fill="none" stroke="#5AFFFF" stroke-width="2" stroke-miterlimit="10" d="M265.4,281.8c-0.9,2.1-3,3.6-5.5,3.6
	c-3.3,0-6-2.7-6-6c0-3.3,2.7-6,6-6c2.6,0,4.8,1.7,5.6,4"/>
<path fill="none" stroke="#5AFFFF" stroke-width="2" stroke-miterlimit="10" d="M265.4,301.8c-0.9,2.1-3,3.6-5.5,3.6
	c-3.3,0-6-2.7-6-6c0-3.3,2.7-6,6-6c2.6,0,4.8,1.7,5.6,4"/>
</svg>
