<?xml version="1.0" encoding="utf-8"?>
<!-- Generator: Adobe Illustrator 18.1.1, SVG Export Plug-In . SVG Version: 6.00 Build 0)  -->
<svg version="1.1" xmlns="http://www.w3.org/2000/svg" xmlns:xlink="http://www.w3.org/1999/xlink" x="0px" y="0px"
	 viewBox="0 0 170 132" enable-background="new 0 0 170 132" xml:space="preserve">
<g id="Слой_1">
	<g>
		<path fill="none" stroke="#FFFFFF" stroke-miterlimit="10" d="M84.2,85.4c-0.5-2.7-1.9-4.6-3.9-4.9c-0.1,0-0.2,0-0.2,0
			c-0.5-7.6-2.9-14.6-6.6-20.5"/>
		<path fill="none" stroke="#FFFFFF" stroke-miterlimit="10" d="M25.9,118.6c5.4,3.7,11.7,5.9,18.5,5.9"/>
		<path fill="none" stroke="#FFFFFF" stroke-miterlimit="10" d="M15.8,59.4c-3.9,6-6.4,13.2-7,21.1c-0.1,0-0.1,0-0.2,0
			c-2.9,0.4-4.6,4.6-3.9,9.3c0.7,4.4,3.3,7.7,6.1,7.7c0.9,2.8,2,5.4,3.3,7.8"/>
		<g>
			<path fill="#FFFFFF" d="M36,79.6c0-0.9-0.4-1.8-1-2.4h-4.7c-0.6,0.6-1,1.5-1,2.4c0,1.2,0.6,2.2,1.5,2.8h3.8
				C35.4,81.8,36,80.8,36,79.6z"/>
		</g>
		<g>
			<path fill="#FFFFFF" d="M61.8,79.6c0-0.9-0.4-1.8-1-2.4H56c-0.6,0.6-1,1.5-1,2.4c0,1.2,0.6,2.2,1.5,2.8h3.8
				C61.2,81.8,61.8,80.8,61.8,79.6z"/>
		</g>
		<path fill="#FFFFFF" d="M64.3,75.3c-0.2,0-0.5-0.1-0.7-0.3c-1.5-1.7-3.1-2.6-4.9-2.7c-3.2-0.2-5.8,2.3-5.8,2.3
			c-0.4,0.3-0.9,0.3-1.2,0c-0.3-0.4-0.3-0.9,0-1.2c0.1-0.1,3.2-3,7.1-2.7c2.3,0.1,4.3,1.2,6.1,3.3c0.3,0.4,0.3,0.9-0.1,1.2
			C64.7,75.3,64.5,75.3,64.3,75.3z"/>
		<path fill="#FFFFFF" d="M26.5,75.3c-0.2,0-0.4-0.1-0.6-0.2c-0.4-0.3-0.4-0.9-0.1-1.2c1.8-2,3.8-3.1,6.1-3.3c3.9-0.2,7,2.6,7.1,2.7
			c0.4,0.3,0.4,0.9,0,1.2c-0.3,0.4-0.9,0.4-1.2,0c0,0-2.7-2.4-5.8-2.3c-1.8,0.1-3.4,1-4.9,2.7C27,75.2,26.8,75.3,26.5,75.3z"/>
		<path fill="none" stroke="#FFFFFF" stroke-miterlimit="10" d="M35.9,8.2c-3.5-3.5-8.4-5.7-13.8-5.7c0,0,0,0,0,0c0,0,0,0,0,0
			C11.3,2.5,3,11.2,3,21.9c0,8.6,4.5,15.8,13.5,18.4v20.1h28V17.4V5.7C40.5,5.7,38.4,6.6,35.9,8.2z"/>
		<path fill="none" stroke="#FFFFFF" stroke-miterlimit="10" d="M5.9,21.7c0-8.7,7.1-15.8,15.8-15.8"/>
		<path fill="none" stroke="#FFFFFF" stroke-miterlimit="10" d="M44.4,130.4c22.6,0,40.9-20,40.9-44.7H44.6L44.4,130.4z"/>
		<path fill="none" stroke="#FFFFFF" stroke-miterlimit="10" d="M44.5,119.3H31.1c-9.3,0-16.9-7.6-16.9-16.9v0
			c0-9.3,7.6-16.9,16.9-16.9h13.4"/>
		<path fill="none" stroke="#FFFFFF" stroke-miterlimit="10" d="M34.3,116.5h-3.7c-7.4,0-13.5-6-13.5-13.5v-1.8"/>
		<path fill="none" stroke="#FFFFFF" stroke-miterlimit="10" d="M57.1,123.7c-1.4,0-2.7-0.8-3.3-2.2c-0.8-1.8,0.1-3.9,1.9-4.7
			c7.8-3.3,14.1-10.5,16.7-19.3c0.6-1.9,2.5-3,4.4-2.4c1.9,0.6,3,2.5,2.4,4.4c-3.2,11-10.8,19.7-20.8,23.8
			C58,123.6,57.6,123.7,57.1,123.7z"/>
		<path fill="none" stroke="#FFFFFF" stroke-miterlimit="10" d="M44.4,33.2c21.6,0,40,5.1,40,11.3S66.9,55.9,45.3,55.9
			c-0.3,0-0.6,0-0.9,0"/>
		<path fill="none" stroke="#FFFFFF" stroke-miterlimit="10" d="M76,51.4c0.4,0.7,0.7,1.5,0.7,2.2c0,5.9-14.9,13.9-32.3,13.9"/>
		<path fill="none" stroke="#FFFFFF" stroke-miterlimit="10" d="M76.7,52.9C67,57.5,57.9,60.4,44,60.4"/>
		<line fill="none" stroke="#FFFFFF" stroke-miterlimit="10" x1="19" y1="91.6" x2="7.5" y2="81.9"/>
		<path fill="none" stroke="#FFFFFF" stroke-miterlimit="10" d="M34.3,113.4h-3c-5.9,0-10.7-4.8-10.7-10.7v-1.4"/>
	</g>
	<g>
		<path fill="none" stroke="#5AFFFF" stroke-width="4" stroke-miterlimit="10" d="M133.3,60.4c-2.8,6.5-9.2,11.1-16.8,11.1
			c-10.1,0-18.2-8.2-18.2-18.2s8.2-18.2,18.2-18.2c7.9,0,14.7,5.1,17.2,12.2"/>
		<path fill="none" stroke="#5AFFFF" stroke-width="4" stroke-miterlimit="10" d="M155.3,60.4c-2.8,6.5-9.2,11.1-16.8,11.1
			c-10.1,0-18.2-8.2-18.2-18.2s8.2-18.2,18.2-18.2c7.9,0,14.7,5.1,17.2,12.2"/>
	</g>
	<g>
		<path fill="#5AFFFF" d="M105.1,105.4c-3.4,0-6.2-2.9-6.2-6.5c0-3.6,2.7-6.5,6.2-6.5c2.7,0,4.9,1.7,5.8,4.1h-0.7
			c-0.8-2.1-2.7-3.5-5-3.5c-3,0-5.5,2.6-5.5,5.8c0,3.2,2.5,5.8,5.5,5.8c2.2,0,4.2-1.4,5-3.5h0.7
			C109.9,103.6,107.7,105.4,105.1,105.4z"/>
		<path fill="#5AFFFF" d="M122.2,100.5c0,2.7-2.1,4.8-4.6,4.8c-2.5,0-4.6-2.2-4.6-4.8c0-2.7,2.1-4.9,4.6-4.9
			C120.2,95.7,122.2,97.8,122.2,100.5z M121.6,100.5c0-2.4-1.8-4.3-4-4.3c-2.2,0-4,1.9-4,4.3c0,2.3,1.8,4.2,4,4.2
			C119.8,104.7,121.6,102.8,121.6,100.5z"/>
		<path fill="#5AFFFF" d="M131.5,102.6c0,1.8-1.3,2.8-3.5,2.8c-2.6,0-3.8-1.6-3.9-3h0.7c0.2,1.5,1.3,2.4,3.2,2.4
			c1.8,0,2.8-0.8,2.8-2.1c0-1.3-0.7-2.1-2.3-2.1h-1.4v-0.6h1.3c1.4,0,2-0.5,2-1.7c0-1.1-0.9-1.9-2.4-1.9c-1.4,0-2.4,0.7-2.7,2h-0.7
			c0.3-1.7,1.6-2.7,3.4-2.7c1.8,0,3.1,1,3.1,2.6c0,1-0.5,1.7-1.3,2C131,100.5,131.5,101.4,131.5,102.6z"/>
		<path fill="#5AFFFF" d="M136.6,95.9h3.1l2.4,8.6h0.7v2.4h-0.7v-1.7h-8.1v1.7h-0.7v-2.4h0.7L136.6,95.9z M139.3,96.5h-2.2l-2.2,8
			h6.6L139.3,96.5z"/>
		<path fill="#5AFFFF" d="M152.4,105.1c-0.2-0.3-0.3-0.8-0.3-1.3v-0.2c-0.7,1-2.2,1.7-4,1.7c-1.6,0-3.4-0.8-3.4-2.6
			c0-2.1,2-2.6,3.9-2.8c2-0.2,3.4-0.4,3.4-1.5c0-1.7-1.6-2.1-3-2.1c-1.7,0-2.8,0.7-3.2,2h-0.7c0.4-1.7,1.8-2.6,3.9-2.6
			c2.3,0,3.6,1,3.6,2.7v5.2c0,0.5,0.1,1.1,0.3,1.5H152.4z M152.1,99.7c-0.7,0.7-2.1,0.8-3.3,0.9c-2.4,0.2-3.3,0.9-3.3,2.1
			c0,1.5,1.7,1.9,2.6,1.9c2,0,4-0.9,4-2.9V99.7z"/>
		<path fill="#5AFFFF" d="M156.4,95.9h0.7v8.4l5.9-8.4h0.7v9.2h-0.7v-8.4l-5.9,8.4h-0.7V95.9z M160.1,94.3c-1.2,0-2.1-0.7-2.4-1.9
			h0.7c0.2,0.8,0.8,1.2,1.7,1.2c0.9,0,1.4-0.4,1.7-1.2h0.7C162.1,93.5,161.3,94.3,160.1,94.3z"/>
		<path fill="#5AFFFF" d="M105.1,125.4c-3.4,0-6.2-2.9-6.2-6.5c0-3.6,2.7-6.5,6.2-6.5c2.7,0,4.9,1.7,5.8,4.1h-0.7
			c-0.8-2.1-2.7-3.5-5-3.5c-3,0-5.5,2.6-5.5,5.8c0,3.2,2.5,5.8,5.5,5.8c2.2,0,4.2-1.4,5-3.5h0.7
			C109.9,123.6,107.7,125.4,105.1,125.4z"/>
		<path fill="#5AFFFF" d="M113.7,120.5c0,2.4,1.8,4.2,4.1,4.2c2.2,0,3.2-1.2,3.6-2.4h0.7c-0.6,2-2.1,3.1-4.3,3.1
			c-2.6,0-4.7-2.1-4.7-4.8c0-2.7,2.1-4.9,4.6-4.9c2.8,0,4.7,2.5,4.6,4.8H113.7z M121.5,119.8c-0.3-2-2-3.5-3.9-3.5
			c-2,0-3.6,1.5-3.9,3.5H121.5z"/>
		<path fill="#5AFFFF" d="M129.1,111.8h1.6c0.8,0,1.3-0.1,1.7-0.3v0.7c-0.4,0.2-0.8,0.3-1.6,0.3h-1.7c-2.2,0-3.7,1.4-3.7,4.1v1.6
			c0.8-1.5,2.2-2.5,4-2.5c2.6,0,4.6,2.2,4.6,4.9c0,2.7-2.1,4.8-4.6,4.8c-2.5,0-4.6-2.2-4.6-4.8v-4
			C124.7,113.5,126.5,111.8,129.1,111.8z M129.3,116.3c-2.2,0-4,1.9-4,4.2c0,2.3,1.8,4.2,4,4.2s4-1.9,4-4.2
			C133.3,118.2,131.5,116.3,129.3,116.3z"/>
		<path fill="#5AFFFF" d="M136.4,118.5c0-1.8,1.3-2.6,3-2.6h4.2v9.2h-0.7v-4.1h-3.6c-1.6,0-2.1,0.6-2.1,1.9v0.7
			c0,0.6-0.1,1.1-0.3,1.4h-0.7c0.2-0.4,0.3-1,0.3-1.5V123c0-1.3,0.4-2,1.3-2.2C136.8,120.3,136.4,119.5,136.4,118.5z M142.9,116.5
			h-3.5c-1.3,0-2.3,0.5-2.3,2c0,1.5,1,1.9,2.3,1.9h3.5V116.5z"/>
	</g>
	<path fill="none" stroke="#5AFFFF" stroke-width="2" stroke-miterlimit="10" d="M110.4,100.8c-0.9,2.1-3,3.6-5.5,3.6
		c-3.3,0-6-2.7-6-6s2.7-6,6-6c2.6,0,4.8,1.7,5.6,4"/>
	<path fill="none" stroke="#5AFFFF" stroke-width="2" stroke-miterlimit="10" d="M110.4,120.8c-0.9,2.1-3,3.6-5.5,3.6
		c-3.3,0-6-2.7-6-6s2.7-6,6-6c2.6,0,4.8,1.7,5.6,4"/>
</g>
<g id="Слой_2" display="none">
	<rect x="100.3" y="91.8" display="inline" fill="none" width="71.8" height="40.1"/>
	<text transform="matrix(1 0 0 1 100.3367 105.1353)" display="inline"><tspan x="0" y="0" fill="#5AFFFF" font-family="'Chalet-ParisNineteenSixty'" font-size="17.9594" letter-spacing="1">Создай </tspan><tspan x="0" y="20" fill="#5AFFFF" font-family="'Chalet-ParisNineteenSixty'" font-size="17.9594" letter-spacing="1">Себя</tspan></text>
</g>
</svg>
